<svg width="900" height="600" xmlns="http://www.w3.org/2000/svg" font-family="sans-serif" font-size="11">
  <text x="450" y="22" text-anchor="middle" font-size="14" font-weight="bold">Table D.3 — Constants × sectors incidence</text>
  <text x="450" y="40" text-anchor="middle" font-size="10" fill="#666" font-style="italic">filled cells indicate "load-bearing usage of constant in sector"</text>

  <!-- Column headers (9 sector columns) -->
  <g text-anchor="middle" font-weight="bold" fill="#444" font-size="11">
    <text x="220" y="78">QM</text>
    <text x="280" y="78">QFT</text>
    <text x="340" y="78">QC</text>
    <text x="400" y="78">NS</text>
    <text x="460" y="78">YM</text>
    <text x="520" y="78">soft-m</text>
    <text x="580" y="78">SG</text>
    <text x="640" y="78">curv</text>
    <text x="700" y="78">BH</text>
  </g>

  <!-- Grid: 12 constants × 9 sectors. Cell 60×35. Origin (190,85) -->
  <g stroke="#bbb" stroke-width="1" fill="#fff">
    <!-- 12 rows -->
    <rect x="190" y="85" width="60" height="35"/><rect x="250" y="85" width="60" height="35"/><rect x="310" y="85" width="60" height="35"/><rect x="370" y="85" width="60" height="35"/><rect x="430" y="85" width="60" height="35"/><rect x="490" y="85" width="60" height="35"/><rect x="550" y="85" width="60" height="35"/><rect x="610" y="85" width="60" height="35"/><rect x="670" y="85" width="60" height="35"/>
    <rect x="190" y="120" width="60" height="35"/><rect x="250" y="120" width="60" height="35"/><rect x="310" y="120" width="60" height="35"/><rect x="370" y="120" width="60" height="35"/><rect x="430" y="120" width="60" height="35"/><rect x="490" y="120" width="60" height="35"/><rect x="550" y="120" width="60" height="35"/><rect x="610" y="120" width="60" height="35"/><rect x="670" y="120" width="60" height="35"/>
    <rect x="190" y="155" width="60" height="35"/><rect x="250" y="155" width="60" height="35"/><rect x="310" y="155" width="60" height="35"/><rect x="370" y="155" width="60" height="35"/><rect x="430" y="155" width="60" height="35"/><rect x="490" y="155" width="60" height="35"/><rect x="550" y="155" width="60" height="35"/><rect x="610" y="155" width="60" height="35"/><rect x="670" y="155" width="60" height="35"/>
    <rect x="190" y="190" width="60" height="35"/><rect x="250" y="190" width="60" height="35"/><rect x="310" y="190" width="60" height="35"/><rect x="370" y="190" width="60" height="35"/><rect x="430" y="190" width="60" height="35"/><rect x="490" y="190" width="60" height="35"/><rect x="550" y="190" width="60" height="35"/><rect x="610" y="190" width="60" height="35"/><rect x="670" y="190" width="60" height="35"/>
    <rect x="190" y="225" width="60" height="35"/><rect x="250" y="225" width="60" height="35"/><rect x="310" y="225" width="60" height="35"/><rect x="370" y="225" width="60" height="35"/><rect x="430" y="225" width="60" height="35"/><rect x="490" y="225" width="60" height="35"/><rect x="550" y="225" width="60" height="35"/><rect x="610" y="225" width="60" height="35"/><rect x="670" y="225" width="60" height="35"/>
    <rect x="190" y="260" width="60" height="35"/><rect x="250" y="260" width="60" height="35"/><rect x="310" y="260" width="60" height="35"/><rect x="370" y="260" width="60" height="35"/><rect x="430" y="260" width="60" height="35"/><rect x="490" y="260" width="60" height="35"/><rect x="550" y="260" width="60" height="35"/><rect x="610" y="260" width="60" height="35"/><rect x="670" y="260" width="60" height="35"/>
    <rect x="190" y="295" width="60" height="35"/><rect x="250" y="295" width="60" height="35"/><rect x="310" y="295" width="60" height="35"/><rect x="370" y="295" width="60" height="35"/><rect x="430" y="295" width="60" height="35"/><rect x="490" y="295" width="60" height="35"/><rect x="550" y="295" width="60" height="35"/><rect x="610" y="295" width="60" height="35"/><rect x="670" y="295" width="60" height="35"/>
    <rect x="190" y="330" width="60" height="35"/><rect x="250" y="330" width="60" height="35"/><rect x="310" y="330" width="60" height="35"/><rect x="370" y="330" width="60" height="35"/><rect x="430" y="330" width="60" height="35"/><rect x="490" y="330" width="60" height="35"/><rect x="550" y="330" width="60" height="35"/><rect x="610" y="330" width="60" height="35"/><rect x="670" y="330" width="60" height="35"/>
    <rect x="190" y="365" width="60" height="35"/><rect x="250" y="365" width="60" height="35"/><rect x="310" y="365" width="60" height="35"/><rect x="370" y="365" width="60" height="35"/><rect x="430" y="365" width="60" height="35"/><rect x="490" y="365" width="60" height="35"/><rect x="550" y="365" width="60" height="35"/><rect x="610" y="365" width="60" height="35"/><rect x="670" y="365" width="60" height="35"/>
    <rect x="190" y="400" width="60" height="35"/><rect x="250" y="400" width="60" height="35"/><rect x="310" y="400" width="60" height="35"/><rect x="370" y="400" width="60" height="35"/><rect x="430" y="400" width="60" height="35"/><rect x="490" y="400" width="60" height="35"/><rect x="550" y="400" width="60" height="35"/><rect x="610" y="400" width="60" height="35"/><rect x="670" y="400" width="60" height="35"/>
    <rect x="190" y="435" width="60" height="35"/><rect x="250" y="435" width="60" height="35"/><rect x="310" y="435" width="60" height="35"/><rect x="370" y="435" width="60" height="35"/><rect x="430" y="435" width="60" height="35"/><rect x="490" y="435" width="60" height="35"/><rect x="550" y="435" width="60" height="35"/><rect x="610" y="435" width="60" height="35"/><rect x="670" y="435" width="60" height="35"/>
    <rect x="190" y="470" width="60" height="35"/><rect x="250" y="470" width="60" height="35"/><rect x="310" y="470" width="60" height="35"/><rect x="370" y="470" width="60" height="35"/><rect x="430" y="470" width="60" height="35"/><rect x="490" y="470" width="60" height="35"/><rect x="550" y="470" width="60" height="35"/><rect x="610" y="470" width="60" height="35"/><rect x="670" y="470" width="60" height="35"/>
  </g>

  <!-- Filled cells (load-bearing) -->
  <g fill="#1a4f8b">
    <!-- ℏ in QM, QFT, SG -->
    <rect x="190" y="85" width="60" height="35"/>
    <rect x="250" y="85" width="60" height="35"/>
    <rect x="550" y="85" width="60" height="35"/>
    <!-- c in NS, YM, SG, curv, BH -->
    <rect x="370" y="120" width="60" height="35"/>
    <rect x="430" y="120" width="60" height="35"/>
    <rect x="550" y="120" width="60" height="35"/>
    <rect x="610" y="120" width="60" height="35"/>
    <rect x="670" y="120" width="60" height="35"/>
    <!-- H₀ in SG, curv -->
    <rect x="550" y="155" width="60" height="35"/>
    <rect x="610" y="155" width="60" height="35"/>
    <!-- ℓ_P in NS, YM, soft-m, SG, curv, BH, QC -->
    <rect x="310" y="190" width="60" height="35"/>
    <rect x="370" y="190" width="60" height="35"/>
    <rect x="430" y="190" width="60" height="35"/>
    <rect x="490" y="190" width="60" height="35"/>
    <rect x="550" y="190" width="60" height="35"/>
    <rect x="610" y="190" width="60" height="35"/>
    <rect x="670" y="190" width="60" height="35"/>
    <!-- G in SG, curv, BH -->
    <rect x="550" y="225" width="60" height="35"/>
    <rect x="610" y="225" width="60" height="35"/>
    <rect x="670" y="225" width="60" height="35"/>
    <!-- a₀ in SG, curv -->
    <rect x="550" y="260" width="60" height="35"/>
    <rect x="610" y="260" width="60" height="35"/>
    <!-- α (DCGT) in NS, YM, soft-m, SG, curv, BH (DCGT-derived) -->
    <rect x="370" y="295" width="60" height="35"/>
    <rect x="430" y="295" width="60" height="35"/>
    <rect x="490" y="295" width="60" height="35"/>
    <rect x="670" y="295" width="60" height="35"/>
    <!-- β (UDM) in soft-m -->
    <rect x="490" y="330" width="60" height="35"/>
    <!-- 𝓜_crit in QC -->
    <rect x="310" y="365" width="60" height="35"/>
    <!-- log g in BH -->
    <rect x="670" y="400" width="60" height="35"/>
    <!-- Γ_min in QC, BH -->
    <rect x="310" y="435" width="60" height="35"/>
    <rect x="670" y="435" width="60" height="35"/>
    <!-- Λ_V1 in QC -->
    <rect x="310" y="470" width="60" height="35"/>
  </g>

  <!-- Row labels -->
  <g text-anchor="end" font-weight="bold" fill="#1a4f8b" font-size="12">
    <text x="180" y="107">ℏ</text>
    <text x="180" y="142">c</text>
    <text x="180" y="177">H₀</text>
    <text x="180" y="212">ℓ_P</text>
    <text x="180" y="247">G</text>
    <text x="180" y="282">a₀</text>
    <text x="180" y="317">α (DCGT)</text>
    <text x="180" y="352">β (UDM)</text>
    <text x="180" y="387">𝓜_crit</text>
    <text x="180" y="422">log g</text>
    <text x="180" y="457">Γ_min</text>
    <text x="180" y="492">Λ_V1</text>
  </g>

  <!-- Footer -->
  <text x="450" y="540" text-anchor="middle" font-size="10" fill="#666" font-style="italic">ℓ_P is the most cross-sector substrate input (load-bearing in 7+ sectors)</text>
  <text x="450" y="558" text-anchor="middle" font-size="10" fill="#666" font-style="italic">G and a₀ are confined to the gravity sector cluster</text>
  <text x="450" y="576" text-anchor="middle" font-size="10" fill="#666" font-style="italic">𝓜_crit, log g, β are sector-specific (matching the closed-form-substrate-constants targets)</text>
</svg>
