<svg width="900" height="600" xmlns="http://www.w3.org/2000/svg" font-family="sans-serif" font-size="12">
  <text x="450" y="28" text-anchor="middle" font-size="14" font-weight="bold">Figure 8.5 — H1 / H2 / H3 turbulence hypotheses: status under ED</text>

  <!-- Table headers -->
  <g fill="#1a4f8b" stroke="#1a4f8b" stroke-width="1.5">
    <rect x="40" y="60" width="100" height="40"/>
    <rect x="140" y="60" width="320" height="40"/>
    <rect x="460" y="60" width="200" height="40"/>
    <rect x="660" y="60" width="200" height="40"/>
  </g>
  <g text-anchor="middle" fill="#fff" font-weight="bold" font-size="13">
    <text x="90" y="86">Hypothesis</text>
    <text x="300" y="86">Statement</text>
    <text x="560" y="86">Status under ED</text>
    <text x="760" y="86">Substrate route</text>
  </g>

  <!-- Row H1 -->
  <g fill="#fff" stroke="#888" stroke-width="1">
    <rect x="40" y="100" width="100" height="140"/>
    <rect x="140" y="100" width="320" height="140"/>
    <rect x="460" y="100" width="200" height="140"/>
    <rect x="660" y="100" width="200" height="140"/>
  </g>
  <text x="90" y="170" text-anchor="middle" font-weight="bold" fill="#1a4f8b" font-size="15">H1</text>
  <g fill="#444" font-size="11">
    <text x="155" y="125">Energy cascade exists</text>
    <text x="155" y="143">at high Reynolds</text>
    <text x="155" y="170">number;</text>
    <text x="155" y="188">dissipation occurs at</text>
    <text x="155" y="206">scales much smaller</text>
    <text x="155" y="224">than energy-injection</text>
  </g>
  <g text-anchor="middle">
    <rect x="475" y="135" width="170" height="32" fill="#e8f0ff" stroke="#1a4f8b" stroke-width="1"/>
    <text x="560" y="156" font-weight="bold" fill="#1a4f8b" font-size="13">HOLDS</text>
    <text x="560" y="195" font-size="10" fill="#444" font-style="italic">consistent with ED</text>
    <text x="560" y="213" font-size="10" fill="#444" font-style="italic">+ R1 cutoff at ℓ_P</text>
  </g>
  <g fill="#444" font-size="11">
    <text x="675" y="125">DCGT directional</text>
    <text x="675" y="143">viscosity carries</text>
    <text x="675" y="161">energy across scales;</text>
    <text x="675" y="179">R1 dissipates at</text>
    <text x="675" y="197">substrate cutoff</text>
    <text x="675" y="222" font-style="italic">— Ch. 8, Ch. 3</text>
  </g>

  <!-- Row H2 -->
  <g fill="#fff" stroke="#888" stroke-width="1">
    <rect x="40" y="240" width="100" height="140"/>
    <rect x="140" y="240" width="320" height="140"/>
    <rect x="460" y="240" width="200" height="140"/>
    <rect x="660" y="240" width="200" height="140"/>
  </g>
  <text x="90" y="310" text-anchor="middle" font-weight="bold" fill="#1a4f8b" font-size="15">H2</text>
  <g fill="#444" font-size="11">
    <text x="155" y="265">Inertial-range</text>
    <text x="155" y="283">statistics</text>
    <text x="155" y="301">are Kolmogorov:</text>
    <text x="155" y="319">E(k) ~ k^(−5/3)</text>
    <text x="155" y="345">scaling holds</text>
    <text x="155" y="363">in some range</text>
  </g>
  <g text-anchor="middle">
    <rect x="475" y="275" width="170" height="32" fill="#e8f0ff" stroke="#1a4f8b" stroke-width="1"/>
    <text x="560" y="296" font-weight="bold" fill="#1a4f8b" font-size="13">HOLDS</text>
    <text x="560" y="335" font-size="10" fill="#444" font-style="italic">at leading DCGT order</text>
    <text x="560" y="353" font-size="10" fill="#444" font-style="italic">in inertial range</text>
  </g>
  <g fill="#444" font-size="11">
    <text x="675" y="265">canonical-ED</text>
    <text x="675" y="283">cascade structure</text>
    <text x="675" y="301">+ scale-invariance</text>
    <text x="675" y="319">in hydrodynamic</text>
    <text x="675" y="337">window range</text>
    <text x="675" y="362" font-style="italic">— Ch. 8</text>
  </g>

  <!-- Row H3 -->
  <g fill="#fff" stroke="#888" stroke-width="1">
    <rect x="40" y="380" width="100" height="140"/>
    <rect x="140" y="380" width="320" height="140"/>
    <rect x="460" y="380" width="200" height="140"/>
    <rect x="660" y="380" width="200" height="140"/>
  </g>
  <text x="90" y="450" text-anchor="middle" font-weight="bold" fill="#1a4f8b" font-size="15">H3</text>
  <g fill="#444" font-size="11">
    <text x="155" y="405">Intermittency:</text>
    <text x="155" y="423">deviations from</text>
    <text x="155" y="441">strict Kolmogorov</text>
    <text x="155" y="459">scaling at small</text>
    <text x="155" y="477">scales due to</text>
    <text x="155" y="495">sparse high-σ events</text>
  </g>
  <g text-anchor="middle">
    <rect x="475" y="415" width="170" height="32" fill="#e8f0ff" stroke="#1a4f8b" stroke-width="1"/>
    <text x="560" y="436" font-weight="bold" fill="#1a4f8b" font-size="13">HOLDS</text>
    <text x="560" y="475" font-size="10" fill="#444" font-style="italic">consistent with σ-clustering</text>
    <text x="560" y="493" font-size="10" fill="#444" font-style="italic">in substrate gradient</text>
  </g>
  <g fill="#444" font-size="11">
    <text x="675" y="405">gradient sparsity σ</text>
    <text x="675" y="423">distribution governs</text>
    <text x="675" y="441">cross-bandwidth</text>
    <text x="675" y="459">Γ_cross ~ exp[−ασ];</text>
    <text x="675" y="477">non-Gaussian σ events</text>
    <text x="675" y="497" font-style="italic">— Ch. 2, Ch. 8</text>
  </g>

  <!-- Footer -->
  <text x="450" y="555" text-anchor="middle" font-size="11" fill="#444" font-style="italic">All three standard turbulence hypotheses HOLD under ED with substrate-cutoff R1 + canonical-ED cascade structure.</text>
  <text x="450" y="572" text-anchor="middle" font-size="11" fill="#444" font-style="italic">No new turbulence template introduced; existing phenomenology consistent with substrate machinery (NS-Turb arc closure).</text>
</svg>
