<svg width="900" height="600" xmlns="http://www.w3.org/2000/svg" font-family="sans-serif" font-size="13">
  <text x="450" y="28" text-anchor="middle" font-size="14" font-weight="bold">Figure 9.8 — Form-FORCED vs Value-INHERITED at MHD and Yang–Mills</text>

  <line x1="450" y1="55" x2="450" y2="560" stroke="#888" stroke-width="1.5" stroke-dasharray="4,4"/>

  <!-- LEFT: Form-FORCED -->
  <rect x="40" y="55" width="380" height="40" fill="#1a4f8b"/>
  <text x="230" y="80" text-anchor="middle" fill="#fff" font-weight="bold" font-size="14">Form-FORCED</text>
  <text x="230" y="115" text-anchor="middle" font-size="11" fill="#444" font-style="italic">structural results from DCGT + T17 + V1</text>

  <g fill="#e8f0ff" stroke="#1a4f8b" stroke-width="1.5">
    <rect x="60" y="135" width="340" height="55" rx="4"/>
    <rect x="60" y="200" width="340" height="55" rx="4"/>
    <rect x="60" y="265" width="340" height="55" rx="4"/>
    <rect x="60" y="330" width="340" height="55" rx="4"/>
    <rect x="60" y="395" width="340" height="55" rx="4"/>
    <rect x="60" y="460" width="340" height="55" rx="4"/>
  </g>
  <g fill="#1a4f8b" font-size="12">
    <text x="80" y="158" font-weight="bold">MHD 6 : 2 : 3 classification</text>
    <text x="80" y="178" font-size="11">canonical-ED / kinematic / ED-coupled</text>
    <text x="80" y="223" font-weight="bold">Kinematic-coupling pattern</text>
    <text x="80" y="243" font-size="11">advection + induction non-ED (Figure 9.3)</text>
    <text x="80" y="288" font-weight="bold">YM equation D_μ F^μν = J^ν</text>
    <text x="80" y="308" font-size="11">substrate-derived via DCGT non-Abelian + T17</text>
    <text x="80" y="353" font-weight="bold">Mass-gap mechanism</text>
    <text x="80" y="373" font-size="11">V1 second-moment + non-Abelian quartic</text>
    <text x="80" y="418" font-weight="bold">Path-C verdicts (NS-smoothness, YM)</text>
    <text x="80" y="438" font-size="11">conditional-positive structural closure</text>
    <text x="80" y="483" font-weight="bold">T17 C8 substrate gauge-quotient</text>
    <text x="80" y="503" font-size="11">Gribov ambiguity reframed at substrate level</text>
  </g>

  <!-- RIGHT: Value-INHERITED -->
  <rect x="480" y="55" width="380" height="40" fill="#a05a00"/>
  <text x="670" y="80" text-anchor="middle" fill="#fff" font-weight="bold" font-size="14">Value-INHERITED</text>
  <text x="670" y="115" text-anchor="middle" font-size="11" fill="#444" font-style="italic">numerical content calibrated empirically</text>

  <g fill="#fff4e0" stroke="#a05a00" stroke-width="1.5">
    <rect x="500" y="135" width="340" height="55" rx="4"/>
    <rect x="500" y="200" width="340" height="55" rx="4"/>
    <rect x="500" y="265" width="340" height="55" rx="4"/>
    <rect x="500" y="330" width="340" height="55" rx="4"/>
    <rect x="500" y="395" width="340" height="55" rx="4"/>
    <rect x="500" y="460" width="340" height="55" rx="4"/>
  </g>
  <g fill="#a05a00" font-size="12">
    <text x="520" y="158" font-weight="bold">Magnetic resistivity η, viscosity ν</text>
    <text x="520" y="178" font-size="11">plasma-specific empirical constants</text>
    <text x="520" y="223" font-weight="bold">Choice of gauge group SU(2), SU(3), …</text>
    <text x="520" y="243" font-size="11">selected per physical sector (QCD vs EW)</text>
    <text x="520" y="288" font-weight="bold">YM coupling constants</text>
    <text x="520" y="308" font-size="11">g (coupling), Λ_QCD scale</text>
    <text x="520" y="353" font-weight="bold">Mass-gap value m_gap</text>
    <text x="520" y="373" font-size="11">V1-width prefactor + group-theory inheritance</text>
    <text x="520" y="418" font-weight="bold">Hadron spectrum, glueball masses</text>
    <text x="520" y="438" font-size="11">non-perturbative dynamical content</text>
    <text x="520" y="483" font-weight="bold">Confinement / asymptotic freedom scales</text>
    <text x="520" y="503" font-size="11">substrate parameters + group-theoretic</text>
  </g>

  <!-- Footer -->
  <text x="450" y="540" text-anchor="middle" font-size="12" fill="#444" font-style="italic">All structural results FORCED at substrate level via DCGT + T17 + V1;</text>
  <text x="450" y="558" text-anchor="middle" font-size="12" fill="#444" font-style="italic">specific masses, couplings, and physical-sector content INHERITED.</text>
</svg>
