<svg width="900" height="600" xmlns="http://www.w3.org/2000/svg" font-family="sans-serif" font-size="13">
  <text x="450" y="28" text-anchor="middle" font-size="14" font-weight="bold">Figure 15.7 — Form-FORCED vs Value-INHERITED at empirical synthesis</text>

  <line x1="450" y1="55" x2="450" y2="560" stroke="#888" stroke-width="1.5" stroke-dasharray="4,4"/>

  <!-- LEFT: Form-FORCED -->
  <rect x="40" y="55" width="380" height="40" fill="#1a4f8b"/>
  <text x="230" y="80" text-anchor="middle" fill="#fff" font-weight="bold" font-size="14">Form-FORCED</text>
  <text x="230" y="115" text-anchor="middle" font-size="11" fill="#444" font-style="italic">structural predictions</text>

  <g fill="#e8f0ff" stroke="#1a4f8b" stroke-width="1.5">
    <rect x="60" y="135" width="340" height="55" rx="4"/>
    <rect x="60" y="200" width="340" height="55" rx="4"/>
    <rect x="60" y="265" width="340" height="55" rx="4"/>
    <rect x="60" y="330" width="340" height="55" rx="4"/>
    <rect x="60" y="395" width="340" height="55" rx="4"/>
    <rect x="60" y="460" width="340" height="55" rx="4"/>
  </g>
  <g fill="#1a4f8b" font-size="12">
    <text x="80" y="158" font-weight="bold">UDM power-law form</text>
    <text x="80" y="178" font-size="11">universal across soft-matter platforms</text>
    <text x="80" y="223" font-weight="bold">BTFR slope-4 functional form</text>
    <text x="80" y="243" font-size="11">v⁴ = G M_b a₀ FORCED parameter-free</text>
    <text x="80" y="288" font-weight="bold">Active &gt; Quiet population pattern</text>
    <text x="80" y="308" font-size="11">galactic-environment dependence FORCED</text>
    <text x="80" y="353" font-weight="bold">Status taxonomy 5-class structure</text>
    <text x="80" y="373" font-size="11">PASSED / ANCHORED / IN PROG / ACTIVE / OPEN</text>
    <text x="80" y="418" font-weight="bold">Cross-platform identities (𝓜_crit, P04, V1)</text>
    <text x="80" y="438" font-size="11">structural unification across sectors</text>
    <text x="80" y="483" font-weight="bold">Class A wall + Class C plateau predictions</text>
    <text x="80" y="503" font-size="11">FORCED via UR-1 condition exhaustiveness</text>
  </g>

  <!-- RIGHT: Value-INHERITED -->
  <rect x="480" y="55" width="380" height="40" fill="#a05a00"/>
  <text x="670" y="80" text-anchor="middle" fill="#fff" font-weight="bold" font-size="14">Value-INHERITED</text>
  <text x="670" y="115" text-anchor="middle" font-size="11" fill="#444" font-style="italic">numerical anchors / open derivations</text>

  <g fill="#fff4e0" stroke="#a05a00" stroke-width="1.5">
    <rect x="500" y="135" width="340" height="55" rx="4"/>
    <rect x="500" y="200" width="340" height="55" rx="4"/>
    <rect x="500" y="265" width="340" height="55" rx="4"/>
    <rect x="500" y="330" width="340" height="55" rx="4"/>
    <rect x="500" y="395" width="340" height="55" rx="4"/>
    <rect x="500" y="460" width="340" height="55" rx="4"/>
  </g>
  <g fill="#a05a00" font-size="12">
    <text x="520" y="158" font-weight="bold">β = 1.72 ± 0.37 (UDM)</text>
    <text x="520" y="178" font-size="11">empirical exponent (PASSED) vs canonical 2</text>
    <text x="520" y="223" font-weight="bold">53% Active &gt; Quiet ratio</text>
    <text x="520" y="243" font-size="11">specific population statistic (PASSED)</text>
    <text x="520" y="288" font-weight="bold">Hafezi 2025 multi-timescale data</text>
    <text x="520" y="308" font-size="11">specific photonic-system anchor (PASSED)</text>
    <text x="520" y="353" font-weight="bold">𝓜_crit, log g, κ/|N̂'|</text>
    <text x="520" y="373" font-size="11">closed-form-substrate-constants targets (open)</text>
    <text x="520" y="418" font-weight="bold">Sector-specific scaling functions</text>
    <text x="520" y="438" font-size="11">f_int, f_xy, f_sys^(A), g, h, c (open)</text>
    <text x="520" y="483" font-weight="bold">SC-qubit T_2 wall, FRAP t^(1/6) exponent</text>
    <text x="520" y="503" font-size="11">IN PROGRESS empirical investigation</text>
  </g>

  <!-- Footer -->
  <text x="450" y="540" text-anchor="middle" font-size="12" fill="#444" font-style="italic">Empirical posture mixed by design: structural form FORCED universally;</text>
  <text x="450" y="558" text-anchor="middle" font-size="12" fill="#444" font-style="italic">numerical content calibrated against empirical anchors per platform.</text>
</svg>
