<svg width="900" height="600" xmlns="http://www.w3.org/2000/svg" font-family="sans-serif" font-size="12">
  <defs>
    <marker id="arrR" viewBox="0 0 10 10" refX="9" refY="5" markerWidth="7" markerHeight="7" orient="auto-start-reverse">
      <path d="M0,0 L10,5 L0,10 z" fill="#1a4f8b"/>
    </marker>
  </defs>

  <text x="450" y="22" text-anchor="middle" font-size="14" font-weight="bold">Figure 131 — Three parallel future-work tracks</text>
  <text x="450" y="42" text-anchor="middle" font-size="11" fill="#666" font-style="italic">closing-note roadmap</text>

  <!-- Three tracks as horizontal bands -->

  <!-- Track 1: Closed-form-substrate-constants program -->
  <rect x="40" y="70" width="820" height="140" fill="#e8f0ff" stroke="#1a4f8b" stroke-width="2" rx="6"/>
  <text x="60" y="98" font-weight="bold" fill="#1a4f8b" font-size="14">Track 1 — Closed-form-substrate-constants program</text>
  <line x1="55" y1="108" x2="845" y2="108" stroke="#1a4f8b" stroke-width="0.8"/>

  <text x="60" y="132" font-size="11" fill="#444">attack INHERITED-constant boundary from below; derive values currently anchored empirically</text>

  <g fill="#fff" stroke="#1a4f8b" stroke-width="1.2">
    <rect x="60" y="148" width="240" height="52" rx="4"/>
    <rect x="320" y="148" width="240" height="52" rx="4"/>
    <rect x="580" y="148" width="240" height="52" rx="4"/>
  </g>
  <g text-anchor="middle" font-size="11">
    <text x="180" y="170" font-weight="bold" fill="#1a4f8b">𝓜_crit  (O-QC-1)</text>
    <text x="180" y="188" fill="#444">QC sector — Ch. 7</text>

    <text x="440" y="170" font-weight="bold" fill="#1a4f8b">log g  (O2 from Arc BH)</text>
    <text x="440" y="188" fill="#444">BH sector — Ch. 13</text>

    <text x="700" y="170" font-weight="bold" fill="#1a4f8b">κ/|N̂'|  (E4 from ED-SC)</text>
    <text x="700" y="188" fill="#444">ED-SC arc cross-reference</text>
  </g>

  <!-- Track 2: Next-arc program -->
  <rect x="40" y="225" width="820" height="140" fill="#fff4e0" stroke="#a05a00" stroke-width="2" rx="6"/>
  <text x="60" y="253" font-weight="bold" fill="#a05a00" font-size="14">Track 2 — Next-arc program</text>
  <line x1="55" y1="263" x2="845" y2="263" stroke="#a05a00" stroke-width="0.8"/>

  <text x="60" y="287" font-size="11" fill="#444">open new structural fronts; B4 is the immediate concrete arc; COSMO and GR-4A long-horizon</text>

  <g fill="#fff" stroke="#a05a00" stroke-width="1.2">
    <rect x="60" y="303" width="240" height="52" rx="4"/>
    <rect x="320" y="303" width="240" height="52" rx="4"/>
    <rect x="580" y="303" width="240" height="52" rx="4"/>
  </g>
  <g text-anchor="middle" font-size="11">
    <text x="180" y="325" font-weight="bold" fill="#a05a00">B4 — Hawking spectrum</text>
    <text x="180" y="343" fill="#444">near-term concrete arc (Ch. 13)</text>

    <text x="440" y="325" font-weight="bold" fill="#a05a00">Arc COSMO</text>
    <text x="440" y="343" fill="#444">cosmological-scale dynamics (open)</text>

    <text x="700" y="325" font-weight="bold" fill="#a05a00">GR-4A</text>
    <text x="700" y="343" fill="#444">Einstein-equation derivation (speculative)</text>
  </g>

  <!-- Track 3: Chapter-expansion program -->
  <rect x="40" y="380" width="820" height="140" fill="#f0e8ff" stroke="#5a2090" stroke-width="2" rx="6"/>
  <text x="60" y="408" font-weight="bold" fill="#5a2090" font-size="14">Track 3 — Chapter-expansion program</text>
  <line x1="55" y1="418" x2="845" y2="418" stroke="#5a2090" stroke-width="0.8"/>

  <text x="60" y="442" font-size="11" fill="#444">progressively replace shell summaries with full integrated treatments; multi-session per chapter</text>

  <g fill="#fff" stroke="#5a2090" stroke-width="1.2">
    <rect x="60" y="458" width="240" height="52" rx="4"/>
    <rect x="320" y="458" width="240" height="52" rx="4"/>
    <rect x="580" y="458" width="240" height="52" rx="4"/>
  </g>
  <g text-anchor="middle" font-size="11">
    <text x="180" y="480" font-weight="bold" fill="#5a2090">Phase 1 — full chapters (Chs. 1–15)</text>
    <text x="180" y="498" fill="#444">all 15 expanded; this monograph</text>

    <text x="440" y="480" font-weight="bold" fill="#5a2090">Phase 2 — figure assets</text>
    <text x="440" y="498" fill="#444">115 SVGs; in progress</text>

    <text x="700" y="480" font-weight="bold" fill="#5a2090">Phase 3 — refinements</text>
    <text x="700" y="498" fill="#444">paced by sectorial clarification</text>
  </g>

  <!-- Footer -->
  <rect x="40" y="540" width="820" height="50" fill="#f9f9f9" stroke="#bbb" stroke-width="1" rx="4"/>
  <text x="450" y="563" text-anchor="middle" font-weight="bold" font-size="12" fill="#444">Three tracks proceed in parallel</text>
  <text x="450" y="582" text-anchor="middle" font-size="11" fill="#444" font-style="italic">progress on any one feeds the others; closed-form constants enable concrete-arc tractability and chapter refinement</text>
</svg>
