<svg width="900" height="600" xmlns="http://www.w3.org/2000/svg" font-family="sans-serif" font-size="12">
  <text x="450" y="28" text-anchor="middle" font-size="14" font-weight="bold">Figure 15.2 — Status counts (40 predictions, distributed across five status classes)</text>

  <!-- Pie chart: center (300, 320), radius 150 -->
  <!-- Total = 40. Angles (clockwise from top -90°): -->
  <!-- PASSED 3/40 = 27° -->
  <!-- ANCHORED 13/40 = 117° -->
  <!-- IN PROGRESS 3/40 = 27° -->
  <!-- ACTIVE 17/40 = 153° -->
  <!-- OPEN 4/40 = 36° -->

  <!-- PASSED: -90° to -63° -->
  <path d="M 300,320 L 300,170 A 150,150 0 0,1 366.81,335.13 Z" fill="#1a4f8b" stroke="#fff" stroke-width="1.5"/>

  <!-- ANCHORED: -63° to 54° (117°) -->
  <path d="M 300,320 L 366.81,335.13 A 150,150 0 0,1 388.16,441.34 Z" fill="#a05a00" stroke="#fff" stroke-width="1.5"/>

  <!-- IN PROGRESS: 54° to 81° (27°) -->
  <path d="M 300,320 L 388.16,441.34 A 150,150 0 0,1 323.45,468.16 Z" fill="#5a2090" stroke="#fff" stroke-width="1.5"/>

  <!-- ACTIVE: 81° to 234° (153°) -->
  <path d="M 300,320 L 323.45,468.16 A 150,150 0 0,1 211.83,201.40 Z" fill="#3a7fb8" stroke="#fff" stroke-width="1.5"/>

  <!-- OPEN: 234° to -90° (36°) -->
  <path d="M 300,320 L 211.83,201.40 A 150,150 0 0,1 300,170 Z" fill="#888" stroke="#fff" stroke-width="1.5"/>

  <!-- Slice labels around the pie -->
  <text x="335" y="245" text-anchor="middle" fill="#fff" font-weight="bold" font-size="12">3</text>
  <text x="395" y="368" text-anchor="middle" fill="#fff" font-weight="bold" font-size="14">13</text>
  <text x="370" y="445" text-anchor="middle" fill="#fff" font-weight="bold" font-size="11">3</text>
  <text x="220" y="365" text-anchor="middle" fill="#fff" font-weight="bold" font-size="16">17</text>
  <text x="237" y="220" text-anchor="middle" fill="#fff" font-weight="bold" font-size="12">4</text>

  <!-- Legend on right -->
  <rect x="540" y="100" width="320" height="430" fill="#f9f9f9" stroke="#bbb" stroke-width="1.2" rx="6"/>
  <text x="700" y="125" text-anchor="middle" font-weight="bold" font-size="13" fill="#444">Legend</text>
  <line x1="555" y1="135" x2="845" y2="135" stroke="#bbb" stroke-width="0.5"/>

  <!-- Legend rows -->
  <rect x="565" y="150" width="20" height="20" fill="#1a4f8b"/>
  <text x="595" y="165" font-weight="bold" font-size="12" fill="#444">PASSED</text>
  <text x="595" y="182" font-size="11" fill="#666">3 entries (7.5%)</text>

  <rect x="565" y="210" width="20" height="20" fill="#a05a00"/>
  <text x="595" y="225" font-weight="bold" font-size="12" fill="#444">ANCHORED</text>
  <text x="595" y="242" font-size="11" fill="#666">13 entries (32.5%)</text>

  <rect x="565" y="270" width="20" height="20" fill="#5a2090"/>
  <text x="595" y="285" font-weight="bold" font-size="12" fill="#444">IN PROGRESS</text>
  <text x="595" y="302" font-size="11" fill="#666">3 entries (7.5%)</text>

  <rect x="565" y="330" width="20" height="20" fill="#3a7fb8"/>
  <text x="595" y="345" font-weight="bold" font-size="12" fill="#444">ACTIVE</text>
  <text x="595" y="362" font-size="11" fill="#666">17 entries (42.5%)</text>

  <rect x="565" y="390" width="20" height="20" fill="#888"/>
  <text x="595" y="405" font-weight="bold" font-size="12" fill="#444">OPEN</text>
  <text x="595" y="422" font-size="11" fill="#666">4 entries (10.0%)</text>

  <!-- Total -->
  <line x1="555" y1="450" x2="845" y2="450" stroke="#bbb" stroke-width="0.5"/>
  <text x="700" y="475" text-anchor="middle" font-weight="bold" font-size="13" fill="#444">Total: 40 predictions</text>
  <text x="700" y="495" text-anchor="middle" font-size="11" fill="#666" font-style="italic">across nine sectors</text>
  <text x="700" y="513" text-anchor="middle" font-size="10" fill="#666" font-style="italic">canonical source: Desktop/ED_Public_Test_Inventory.md</text>

  <!-- Footer -->
  <text x="300" y="510" text-anchor="middle" font-size="11" fill="#444" font-style="italic">empirical posture is mixed by design:</text>
  <text x="300" y="528" text-anchor="middle" font-size="11" fill="#444" font-style="italic">FORCED structural form + INHERITED values</text>
</svg>
