<svg width="900" height="600" xmlns="http://www.w3.org/2000/svg" font-family="sans-serif" font-size="13">
  <text x="450" y="28" text-anchor="middle" font-size="14" font-weight="bold">Figure 13.10 — Form-FORCED vs Value-INHERITED at black-hole architecture</text>

  <line x1="450" y1="55" x2="450" y2="560" stroke="#888" stroke-width="1.5" stroke-dasharray="4,4"/>

  <!-- LEFT: Form-FORCED -->
  <rect x="40" y="55" width="380" height="40" fill="#1a4f8b"/>
  <text x="230" y="80" text-anchor="middle" fill="#fff" font-weight="bold" font-size="14">Form-FORCED</text>
  <text x="230" y="115" text-anchor="middle" font-size="11" fill="#444" font-style="italic">structural results from Arc BH</text>

  <g fill="#e8f0ff" stroke="#1a4f8b" stroke-width="1.5">
    <rect x="60" y="135" width="340" height="55" rx="4"/>
    <rect x="60" y="200" width="340" height="55" rx="4"/>
    <rect x="60" y="265" width="340" height="55" rx="4"/>
    <rect x="60" y="330" width="340" height="55" rx="4"/>
    <rect x="60" y="395" width="340" height="55" rx="4"/>
    <rect x="60" y="460" width="340" height="55" rx="4"/>
  </g>
  <g fill="#1a4f8b" font-size="12">
    <text x="80" y="158" font-weight="bold">Horizon = decoupling surface Σ_H</text>
    <text x="80" y="178" font-size="11">Γ_cross collapse on closed surface</text>
    <text x="80" y="223" font-weight="bold">No singularity</text>
    <text x="80" y="243" font-size="11">P01 + N1 substrate-cutoff at ℓ_P</text>
    <text x="80" y="288" font-weight="bold">Information blocking + entanglement straddling</text>
    <text x="80" y="308" font-size="11">classical / shared-rule-coherence distinction</text>
    <text x="80" y="353" font-weight="bold">Area-law form S = (A/ℓ_P²) · log g</text>
    <text x="80" y="373" font-size="11">substrate motif counting on Σ_H</text>
    <text x="80" y="418" font-weight="bold">BHPT phase-shift δ_ℓm path-integrated</text>
    <text x="80" y="438" font-size="11">∫ ΔA dτ global invariant structure</text>
    <text x="80" y="483" font-weight="bold">Universal four-class horizon mechanism</text>
    <text x="80" y="503" font-size="11">Schwarzschild / RN / Kerr / Kerr–Newman</text>
  </g>

  <!-- RIGHT: Value-INHERITED -->
  <rect x="480" y="55" width="380" height="40" fill="#a05a00"/>
  <text x="670" y="80" text-anchor="middle" fill="#fff" font-weight="bold" font-size="14">Value-INHERITED</text>
  <text x="670" y="115" text-anchor="middle" font-size="11" fill="#444" font-style="italic">numerical content / open extensions</text>

  <g fill="#fff4e0" stroke="#a05a00" stroke-width="1.5">
    <rect x="500" y="135" width="340" height="55" rx="4"/>
    <rect x="500" y="200" width="340" height="55" rx="4"/>
    <rect x="500" y="265" width="340" height="55" rx="4"/>
    <rect x="500" y="330" width="340" height="55" rx="4"/>
    <rect x="500" y="395" width="340" height="55" rx="4"/>
    <rect x="500" y="460" width="340" height="55" rx="4"/>
  </g>
  <g fill="#a05a00" font-size="12">
    <text x="520" y="158" font-weight="bold">log g entropy coefficient</text>
    <text x="520" y="178" font-size="11">empirical match log g ≈ 1/4 (O2 from Arc BH)</text>
    <text x="520" y="223" font-weight="bold">Hawking temperature spectrum</text>
    <text x="520" y="243" font-size="11">B4 next concrete arc; closed-form INHERITED</text>
    <text x="520" y="288" font-weight="bold">Specific T_H = κ/(2π) value per BH</text>
    <text x="520" y="308" font-size="11">depends on BH mass M, charge Q, spin a</text>
    <text x="520" y="353" font-weight="bold">τ_gap-stab(𝓣) per topological label</text>
    <text x="520" y="373" font-size="11">topology-stability theorem (open)</text>
    <text x="520" y="418" font-weight="bold">Superradiance amplitude</text>
    <text x="520" y="438" font-size="11">Kerr-extension extension extension (Arc BH open)</text>
    <text x="520" y="483" font-weight="bold">Closed-form Kerr interior audit</text>
    <text x="520" y="503" font-size="11">long-horizon item beyond current scope</text>
  </g>

  <!-- Footer -->
  <text x="450" y="540" text-anchor="middle" font-size="12" fill="#444" font-style="italic">All structural BH content FORCED at substrate level via Γ_cross + P01 + V1;</text>
  <text x="450" y="558" text-anchor="middle" font-size="12" fill="#444" font-style="italic">specific spectra, log g coefficient, and topology-stability rates INHERITED.</text>
</svg>
