<svg width="900" height="600" xmlns="http://www.w3.org/2000/svg" font-family="sans-serif" font-size="13">
  <text x="450" y="28" text-anchor="middle" font-size="14" font-weight="bold">Figure 12.10 — Form-FORCED vs Value-INHERITED at curvature emergence</text>

  <line x1="450" y1="55" x2="450" y2="560" stroke="#888" stroke-width="1.5" stroke-dasharray="4,4"/>

  <!-- LEFT: Form-FORCED -->
  <rect x="40" y="55" width="380" height="40" fill="#1a4f8b"/>
  <text x="230" y="80" text-anchor="middle" fill="#fff" font-weight="bold" font-size="14">Form-FORCED</text>
  <text x="230" y="115" text-anchor="middle" font-size="11" fill="#444" font-style="italic">structural results from Arc ED-10 + GR1</text>

  <g fill="#e8f0ff" stroke="#1a4f8b" stroke-width="1.5">
    <rect x="60" y="135" width="340" height="55" rx="4"/>
    <rect x="60" y="200" width="340" height="55" rx="4"/>
    <rect x="60" y="265" width="340" height="55" rx="4"/>
    <rect x="60" y="330" width="340" height="55" rx="4"/>
    <rect x="60" y="395" width="340" height="55" rx="4"/>
    <rect x="60" y="460" width="340" height="55" rx="4"/>
  </g>
  <g fill="#1a4f8b" font-size="12">
    <text x="80" y="158" font-weight="bold">Covariantized scalar-tensor structure</text>
    <text x="80" y="178" font-size="11">∇_μ[μ(...) ∇^μ Φ] = 4πG T form FORCED</text>
    <text x="80" y="223" font-weight="bold">RAQUAL-class single-scalar theory</text>
    <text x="80" y="243" font-size="11">no extra propagating modes</text>
    <text x="80" y="288" font-weight="bold">OS-positive + ghost-free + gradient-stable</text>
    <text x="80" y="308" font-size="11">under conditions (C1)–(C3) (Fig. 12.6)</text>
    <text x="80" y="353" font-weight="bold">Deep-MOND superluminality FORCED</text>
    <text x="80" y="373" font-size="11">avoidance routes inadmissible (Fig. 12.7)</text>
    <text x="80" y="418" font-weight="bold">GR1 curved-spacetime V1 retardation</text>
    <text x="80" y="438" font-size="11">via Hadamard parametrix + Synge function</text>
    <text x="80" y="483" font-weight="bold">Weak-field reduction to flat-background</text>
    <text x="80" y="503" font-size="11">recovers Chapter 11 modified Poisson</text>
  </g>

  <!-- RIGHT: Value-INHERITED -->
  <rect x="480" y="55" width="380" height="40" fill="#a05a00"/>
  <text x="670" y="80" text-anchor="middle" fill="#fff" font-weight="bold" font-size="14">Value-INHERITED</text>
  <text x="670" y="115" text-anchor="middle" font-size="11" fill="#444" font-style="italic">numerical content / out-of-scope items</text>

  <g fill="#fff4e0" stroke="#a05a00" stroke-width="1.5">
    <rect x="500" y="135" width="340" height="55" rx="4"/>
    <rect x="500" y="200" width="340" height="55" rx="4"/>
    <rect x="500" y="265" width="340" height="55" rx="4"/>
    <rect x="500" y="330" width="340" height="55" rx="4"/>
    <rect x="500" y="395" width="340" height="55" rx="4"/>
    <rect x="500" y="460" width="340" height="55" rx="4"/>
  </g>
  <g fill="#a05a00" font-size="12">
    <text x="520" y="158" font-weight="bold">Specific shape of μ(x) interpolation</text>
    <text x="520" y="178" font-size="11">monotone with limits FORCED; shape INHERITED</text>
    <text x="520" y="223" font-weight="bold">Numerical superluminality magnitude</text>
    <text x="520" y="243" font-size="11">depth of deep-MOND mode propagation speed</text>
    <text x="520" y="288" font-weight="bold">V1 width function on curved background</text>
    <text x="520" y="308" font-size="11">Hadamard expansion coefficients INHERITED</text>
    <text x="520" y="353" font-weight="bold">Einstein-equation recovery (GR-4A)</text>
    <text x="520" y="373" font-size="11">SPECULATIVE long-horizon (Fig. 12.9)</text>
    <text x="520" y="418" font-weight="bold">Cosmological-scale dynamics (Arc COSMO)</text>
    <text x="520" y="438" font-size="11">long-horizon speculative</text>
    <text x="520" y="483" font-weight="bold">Gravitational-wave structure</text>
    <text x="520" y="503" font-size="11">beyond acoustic-metric scope</text>
  </g>

  <!-- Footer -->
  <text x="450" y="540" text-anchor="middle" font-size="12" fill="#444" font-style="italic">Curvature emergence FORCED at form level; specific μ-shape, V1 expansion, and Einstein-equation recovery INHERITED / open.</text>
  <text x="450" y="558" text-anchor="middle" font-size="12" fill="#444" font-style="italic">Acoustic metric, not Einstein metric — ED-10 guardrails preserved.</text>
</svg>
