<svg width="900" height="600" xmlns="http://www.w3.org/2000/svg" font-family="sans-serif" font-size="12">
  <defs>
    <marker id="arr" viewBox="0 0 10 10" refX="9" refY="5" markerWidth="7" markerHeight="7" orient="auto-start-reverse">
      <path d="M0,0 L10,5 L0,10 z" fill="#1a4f8b"/>
    </marker>
  </defs>

  <text x="450" y="28" text-anchor="middle" font-size="14" font-weight="bold">Figure 9.9 — MHD and Yang–Mills within the program's broader closed-arc context</text>

  <!-- Center: MHD + YM combined -->
  <rect x="320" y="240" width="260" height="120" fill="#1a4f8b" stroke="#1a4f8b" stroke-width="2" rx="8"/>
  <text x="450" y="270" text-anchor="middle" fill="#fff" font-weight="bold" font-size="14">MHD + Yang–Mills (Ch. 9)</text>
  <line x1="340" y1="280" x2="560" y2="280" stroke="#fff" stroke-width="0.8"/>
  <text x="450" y="304" text-anchor="middle" fill="#fff" font-size="12">Path-C structural-positive</text>
  <text x="450" y="322" text-anchor="middle" fill="#fff" font-size="11" font-style="italic">YM mass-gap mechanism</text>
  <text x="450" y="343" text-anchor="middle" fill="#fff" font-size="11" font-style="italic">+ MHD 6 : 2 : 3 classification</text>

  <!-- Upstream feeds (top row) -->
  <rect x="40" y="80" width="180" height="110" fill="#e8f0ff" stroke="#1a4f8b" stroke-width="1.5" rx="6"/>
  <text x="130" y="105" text-anchor="middle" font-weight="bold" fill="#1a4f8b" font-size="12">DCGT  (Ch. 3)</text>
  <line x1="55" y1="115" x2="205" y2="115" stroke="#1a4f8b" stroke-width="0.8"/>
  <text x="130" y="138" text-anchor="middle" font-size="11" fill="#444">non-Abelian extension</text>
  <text x="130" y="156" text-anchor="middle" font-size="11" fill="#444">substrate-to-continuum</text>
  <text x="130" y="174" text-anchor="middle" font-size="10" fill="#666">multi-scale expansion</text>

  <rect x="240" y="80" width="180" height="110" fill="#e8f0ff" stroke="#1a4f8b" stroke-width="1.5" rx="6"/>
  <text x="330" y="105" text-anchor="middle" font-weight="bold" fill="#1a4f8b" font-size="12">T17  (Ch. 6)</text>
  <line x1="255" y1="115" x2="405" y2="115" stroke="#1a4f8b" stroke-width="0.8"/>
  <text x="330" y="138" text-anchor="middle" font-size="11" fill="#444">gauge-fields-as-rule-types</text>
  <text x="330" y="156" text-anchor="middle" font-size="11" fill="#444">+ generalized minimal</text>
  <text x="330" y="174" text-anchor="middle" font-size="11" fill="#444">coupling</text>

  <rect x="480" y="80" width="180" height="110" fill="#e8f0ff" stroke="#1a4f8b" stroke-width="1.5" rx="6"/>
  <text x="570" y="105" text-anchor="middle" font-weight="bold" fill="#1a4f8b" font-size="12">N1 V1 kernel  (Ch. 4)</text>
  <line x1="495" y1="115" x2="645" y2="115" stroke="#1a4f8b" stroke-width="0.8"/>
  <text x="570" y="138" text-anchor="middle" font-size="11" fill="#444">finite-width second moment</text>
  <text x="570" y="156" text-anchor="middle" font-size="11" fill="#444">mass-gap stabilization</text>
  <text x="570" y="174" text-anchor="middle" font-size="10" fill="#666">substrate cutoff at ℓ_P</text>

  <rect x="680" y="80" width="180" height="110" fill="#e8f0ff" stroke="#1a4f8b" stroke-width="1.5" rx="6"/>
  <text x="770" y="105" text-anchor="middle" font-weight="bold" fill="#1a4f8b" font-size="12">NS  (Ch. 8)</text>
  <line x1="695" y1="115" x2="845" y2="115" stroke="#1a4f8b" stroke-width="0.8"/>
  <text x="770" y="138" text-anchor="middle" font-size="11" fill="#444">advection-as-non-ED</text>
  <text x="770" y="156" text-anchor="middle" font-size="11" fill="#444">Path C precedent</text>
  <text x="770" y="174" text-anchor="middle" font-size="10" fill="#666">three-angle pattern</text>

  <!-- Downstream extensions (bottom row) -->
  <rect x="40" y="430" width="240" height="100" fill="#fff4e0" stroke="#a05a00" stroke-width="1.5" rx="6"/>
  <text x="160" y="455" text-anchor="middle" font-weight="bold" fill="#a05a00" font-size="13">QFT predictions  (Ch. 6, 15)</text>
  <line x1="55" y1="465" x2="265" y2="465" stroke="#a05a00" stroke-width="0.8"/>
  <text x="160" y="488" text-anchor="middle" font-size="11" fill="#444">spectral-gap consequences</text>
  <text x="160" y="506" text-anchor="middle" font-size="11" fill="#444">in QCD-like sectors</text>

  <rect x="320" y="430" width="260" height="100" fill="#fff4e0" stroke="#a05a00" stroke-width="1.5" rx="6"/>
  <text x="450" y="455" text-anchor="middle" font-weight="bold" fill="#a05a00" font-size="13">Substrate-gravity coupling  (Chs. 11, 13)</text>
  <line x1="335" y1="465" x2="565" y2="465" stroke="#a05a00" stroke-width="0.8"/>
  <text x="450" y="488" text-anchor="middle" font-size="11" fill="#444">T17 underwrites field-content</text>
  <text x="450" y="506" text-anchor="middle" font-size="11" fill="#444">coupling at substrate level</text>

  <rect x="620" y="430" width="240" height="100" fill="#fff4e0" stroke="#a05a00" stroke-width="1.5" rx="6"/>
  <text x="740" y="455" text-anchor="middle" font-weight="bold" fill="#a05a00" font-size="13">Soft-matter EM  (Ch. 10)</text>
  <line x1="635" y1="465" x2="845" y2="465" stroke="#a05a00" stroke-width="0.8"/>
  <text x="740" y="488" text-anchor="middle" font-size="11" fill="#444">T17 U(1) specialization</text>
  <text x="740" y="506" text-anchor="middle" font-size="11" fill="#444">in mobility / dressed flows</text>

  <!-- Arrows -->
  <g stroke="#1a4f8b" stroke-width="1.5" fill="none" marker-end="url(#arr)">
    <line x1="160" y1="190" x2="370" y2="240"/>
    <line x1="330" y1="190" x2="430" y2="240"/>
    <line x1="570" y1="190" x2="490" y2="240"/>
    <line x1="770" y1="190" x2="540" y2="240"/>
  </g>

  <g stroke="#1a4f8b" stroke-width="1.5" fill="none" marker-end="url(#arr)">
    <line x1="380" y1="360" x2="200" y2="430"/>
    <line x1="450" y1="360" x2="450" y2="430"/>
    <line x1="520" y1="360" x2="700" y2="430"/>
  </g>

  <!-- Footer -->
  <text x="450" y="565" text-anchor="middle" font-size="11" fill="#444" font-style="italic">MHD + YM connect downstream to substrate gravity (T17 coupling), QFT predictions, and soft-matter EM.</text>
  <text x="450" y="582" text-anchor="middle" font-size="11" fill="#444" font-style="italic">Same Path-C verdict pattern recurs in NS smoothness (Fig. 8.4) and curvature emergence (Ch. 12).</text>
</svg>
