<svg width="900" height="600" xmlns="http://www.w3.org/2000/svg" font-family="sans-serif" font-size="11">
  <text x="450" y="22" text-anchor="middle" font-size="14" font-weight="bold">Figure A.2 — Theorem × chapter incidence matrix</text>
  <text x="450" y="40" text-anchor="middle" font-size="10" fill="#666" font-style="italic">filled cells indicate "load-bearing"</text>

  <!-- Layout: 11 theorem rows, 11 chapter columns (5–15) -->
  <!-- Origin (200, 60). Cell 50×35. -->

  <!-- Column headers: chapters 5..15 -->
  <g text-anchor="middle" font-weight="bold" fill="#444">
    <text x="225" y="78">Ch5</text>
    <text x="275" y="78">Ch6</text>
    <text x="325" y="78">Ch7</text>
    <text x="375" y="78">Ch8</text>
    <text x="425" y="78">Ch9</text>
    <text x="475" y="78">Ch10</text>
    <text x="525" y="78">Ch11</text>
    <text x="575" y="78">Ch12</text>
    <text x="625" y="78">Ch13</text>
    <text x="675" y="78">Ch14</text>
    <text x="725" y="78">Ch15</text>
  </g>

  <!-- Grid background -->
  <g stroke="#bbb" stroke-width="1" fill="#fff">
    <!-- 11 rows × 11 columns, cell 50×35 -->
    <!-- Row 1 T1-T16, y=85-120 -->
    <rect x="200" y="85" width="50" height="35"/><rect x="250" y="85" width="50" height="35"/><rect x="300" y="85" width="50" height="35"/><rect x="350" y="85" width="50" height="35"/><rect x="400" y="85" width="50" height="35"/><rect x="450" y="85" width="50" height="35"/><rect x="500" y="85" width="50" height="35"/><rect x="550" y="85" width="50" height="35"/><rect x="600" y="85" width="50" height="35"/><rect x="650" y="85" width="50" height="35"/><rect x="700" y="85" width="50" height="35"/>
    <!-- Row 2 T17 -->
    <rect x="200" y="120" width="50" height="35"/><rect x="250" y="120" width="50" height="35"/><rect x="300" y="120" width="50" height="35"/><rect x="350" y="120" width="50" height="35"/><rect x="400" y="120" width="50" height="35"/><rect x="450" y="120" width="50" height="35"/><rect x="500" y="120" width="50" height="35"/><rect x="550" y="120" width="50" height="35"/><rect x="600" y="120" width="50" height="35"/><rect x="650" y="120" width="50" height="35"/><rect x="700" y="120" width="50" height="35"/>
    <!-- Row 3 T18 -->
    <rect x="200" y="155" width="50" height="35"/><rect x="250" y="155" width="50" height="35"/><rect x="300" y="155" width="50" height="35"/><rect x="350" y="155" width="50" height="35"/><rect x="400" y="155" width="50" height="35"/><rect x="450" y="155" width="50" height="35"/><rect x="500" y="155" width="50" height="35"/><rect x="550" y="155" width="50" height="35"/><rect x="600" y="155" width="50" height="35"/><rect x="650" y="155" width="50" height="35"/><rect x="700" y="155" width="50" height="35"/>
    <!-- Row 4 T19 -->
    <rect x="200" y="190" width="50" height="35"/><rect x="250" y="190" width="50" height="35"/><rect x="300" y="190" width="50" height="35"/><rect x="350" y="190" width="50" height="35"/><rect x="400" y="190" width="50" height="35"/><rect x="450" y="190" width="50" height="35"/><rect x="500" y="190" width="50" height="35"/><rect x="550" y="190" width="50" height="35"/><rect x="600" y="190" width="50" height="35"/><rect x="650" y="190" width="50" height="35"/><rect x="700" y="190" width="50" height="35"/>
    <!-- Row 5 T20 -->
    <rect x="200" y="225" width="50" height="35"/><rect x="250" y="225" width="50" height="35"/><rect x="300" y="225" width="50" height="35"/><rect x="350" y="225" width="50" height="35"/><rect x="400" y="225" width="50" height="35"/><rect x="450" y="225" width="50" height="35"/><rect x="500" y="225" width="50" height="35"/><rect x="550" y="225" width="50" height="35"/><rect x="600" y="225" width="50" height="35"/><rect x="650" y="225" width="50" height="35"/><rect x="700" y="225" width="50" height="35"/>
    <!-- Row 6 ECR -->
    <rect x="200" y="260" width="50" height="35"/><rect x="250" y="260" width="50" height="35"/><rect x="300" y="260" width="50" height="35"/><rect x="350" y="260" width="50" height="35"/><rect x="400" y="260" width="50" height="35"/><rect x="450" y="260" width="50" height="35"/><rect x="500" y="260" width="50" height="35"/><rect x="550" y="260" width="50" height="35"/><rect x="600" y="260" width="50" height="35"/><rect x="650" y="260" width="50" height="35"/><rect x="700" y="260" width="50" height="35"/>
    <!-- Row 7 T21 -->
    <rect x="200" y="295" width="50" height="35"/><rect x="250" y="295" width="50" height="35"/><rect x="300" y="295" width="50" height="35"/><rect x="350" y="295" width="50" height="35"/><rect x="400" y="295" width="50" height="35"/><rect x="450" y="295" width="50" height="35"/><rect x="500" y="295" width="50" height="35"/><rect x="550" y="295" width="50" height="35"/><rect x="600" y="295" width="50" height="35"/><rect x="650" y="295" width="50" height="35"/><rect x="700" y="295" width="50" height="35"/>
    <!-- Row 8 N1 -->
    <rect x="200" y="330" width="50" height="35"/><rect x="250" y="330" width="50" height="35"/><rect x="300" y="330" width="50" height="35"/><rect x="350" y="330" width="50" height="35"/><rect x="400" y="330" width="50" height="35"/><rect x="450" y="330" width="50" height="35"/><rect x="500" y="330" width="50" height="35"/><rect x="550" y="330" width="50" height="35"/><rect x="600" y="330" width="50" height="35"/><rect x="650" y="330" width="50" height="35"/><rect x="700" y="330" width="50" height="35"/>
    <!-- Row 9 GR1 -->
    <rect x="200" y="365" width="50" height="35"/><rect x="250" y="365" width="50" height="35"/><rect x="300" y="365" width="50" height="35"/><rect x="350" y="365" width="50" height="35"/><rect x="400" y="365" width="50" height="35"/><rect x="450" y="365" width="50" height="35"/><rect x="500" y="365" width="50" height="35"/><rect x="550" y="365" width="50" height="35"/><rect x="600" y="365" width="50" height="35"/><rect x="650" y="365" width="50" height="35"/><rect x="700" y="365" width="50" height="35"/>
    <!-- Row 10 DCGT -->
    <rect x="200" y="400" width="50" height="35"/><rect x="250" y="400" width="50" height="35"/><rect x="300" y="400" width="50" height="35"/><rect x="350" y="400" width="50" height="35"/><rect x="400" y="400" width="50" height="35"/><rect x="450" y="400" width="50" height="35"/><rect x="500" y="400" width="50" height="35"/><rect x="550" y="400" width="50" height="35"/><rect x="600" y="400" width="50" height="35"/><rect x="650" y="400" width="50" height="35"/><rect x="700" y="400" width="50" height="35"/>
    <!-- Row 11 UR-1 -->
    <rect x="200" y="435" width="50" height="35"/><rect x="250" y="435" width="50" height="35"/><rect x="300" y="435" width="50" height="35"/><rect x="350" y="435" width="50" height="35"/><rect x="400" y="435" width="50" height="35"/><rect x="450" y="435" width="50" height="35"/><rect x="500" y="435" width="50" height="35"/><rect x="550" y="435" width="50" height="35"/><rect x="600" y="435" width="50" height="35"/><rect x="650" y="435" width="50" height="35"/><rect x="700" y="435" width="50" height="35"/>
  </g>

  <!-- Filled cells (load-bearing) -->
  <g fill="#1a4f8b">
    <!-- T1-T16: Ch5, 6, 7, 14 -->
    <rect x="200" y="85" width="50" height="35"/>
    <rect x="250" y="85" width="50" height="35"/>
    <rect x="300" y="85" width="50" height="35"/>
    <rect x="650" y="85" width="50" height="35"/>
    <!-- T17: Ch6, 9, 10, 11 -->
    <rect x="250" y="120" width="50" height="35"/>
    <rect x="400" y="120" width="50" height="35"/>
    <rect x="450" y="120" width="50" height="35"/>
    <rect x="500" y="120" width="50" height="35"/>
    <!-- T18: Ch6, 12, 13 -->
    <rect x="250" y="155" width="50" height="35"/>
    <rect x="550" y="155" width="50" height="35"/>
    <rect x="600" y="155" width="50" height="35"/>
    <!-- T19: Ch11, 12, 13 -->
    <rect x="500" y="190" width="50" height="35"/>
    <rect x="550" y="190" width="50" height="35"/>
    <rect x="600" y="190" width="50" height="35"/>
    <!-- T20: Ch11, 12, 15 -->
    <rect x="500" y="225" width="50" height="35"/>
    <rect x="550" y="225" width="50" height="35"/>
    <rect x="700" y="225" width="50" height="35"/>
    <!-- ECR: Ch11, 12 -->
    <rect x="500" y="260" width="50" height="35"/>
    <rect x="550" y="260" width="50" height="35"/>
    <!-- T21: Ch11, 15 -->
    <rect x="500" y="295" width="50" height="35"/>
    <rect x="700" y="295" width="50" height="35"/>
    <!-- N1: Ch6, 8, 9, 12 (Ch4 is for N1 itself but column starts at 5; show via Ch6,8,9,12) -->
    <rect x="250" y="330" width="50" height="35"/>
    <rect x="350" y="330" width="50" height="35"/>
    <rect x="400" y="330" width="50" height="35"/>
    <rect x="550" y="330" width="50" height="35"/>
    <!-- GR1: Ch12, 13 -->
    <rect x="550" y="365" width="50" height="35"/>
    <rect x="600" y="365" width="50" height="35"/>
    <!-- DCGT: Ch7, 8, 9, 10, 11, 12 -->
    <rect x="300" y="400" width="50" height="35"/>
    <rect x="350" y="400" width="50" height="35"/>
    <rect x="400" y="400" width="50" height="35"/>
    <rect x="450" y="400" width="50" height="35"/>
    <rect x="500" y="400" width="50" height="35"/>
    <rect x="550" y="400" width="50" height="35"/>
    <!-- UR-1: Ch7, 14, 15 -->
    <rect x="300" y="435" width="50" height="35"/>
    <rect x="650" y="435" width="50" height="35"/>
    <rect x="700" y="435" width="50" height="35"/>
  </g>

  <!-- Row labels (theorem) -->
  <g text-anchor="end" font-weight="bold" fill="#1a4f8b">
    <text x="190" y="107">T1–T16</text>
    <text x="190" y="142">T17</text>
    <text x="190" y="177">T18</text>
    <text x="190" y="212">T19</text>
    <text x="190" y="247">T20</text>
    <text x="190" y="282">ECR</text>
    <text x="190" y="317">T21</text>
    <text x="190" y="352">N1</text>
    <text x="190" y="387">GR1</text>
    <text x="190" y="422">DCGT</text>
    <text x="190" y="457">UR-1</text>
  </g>

  <!-- Legend -->
  <g transform="translate(40, 510)">
    <rect x="0" y="0" width="20" height="20" fill="#1a4f8b" stroke="#1a4f8b"/>
    <text x="28" y="14" fill="#444" font-size="11">load-bearing</text>
    <rect x="160" y="0" width="20" height="20" fill="#fff" stroke="#bbb"/>
    <text x="188" y="14" fill="#444" font-size="11">not load-bearing</text>
    <text x="350" y="14" fill="#666" font-size="10" font-style="italic">(theorem may still be referenced; only load-bearing usage shown)</text>
  </g>
  <text x="450" y="568" text-anchor="middle" font-size="10" fill="#666" font-style="italic">cross-checks Appendix A provenance graph against chapter dependency graph</text>
  <text x="450" y="585" text-anchor="middle" font-size="10" fill="#666" font-style="italic">DCGT and N1 have the most cross-chapter load-bearing usage</text>
</svg>
