<svg width="900" height="600" xmlns="http://www.w3.org/2000/svg" font-family="sans-serif" font-size="11">
  <defs>
    <marker id="arr" viewBox="0 0 10 10" refX="9" refY="5" markerWidth="7" markerHeight="7" orient="auto-start-reverse">
      <path d="M0,0 L10,5 L0,10 z" fill="#1a4f8b"/>
    </marker>
  </defs>

  <text x="450" y="22" text-anchor="middle" font-size="14" font-weight="bold">Figure 132 — Form-FORCED / Value-INHERITED methodology as cross-sector signature</text>

  <!-- Central methodology node -->
  <rect x="280" y="50" width="340" height="80" fill="#1a4f8b" stroke="#1a4f8b" stroke-width="2" rx="8"/>
  <text x="450" y="78" text-anchor="middle" fill="#fff" font-weight="bold" font-size="13">Form-FORCED  +  Value-INHERITED</text>
  <line x1="300" y1="88" x2="600" y2="88" stroke="#fff" stroke-width="0.8"/>
  <text x="450" y="108" text-anchor="middle" fill="#fff" font-size="11">structural form derived from substrate primitives;</text>
  <text x="450" y="124" text-anchor="middle" fill="#fff" font-size="11">specific numerical thresholds calibrated empirically</text>

  <!-- Nine arrows fanning out to nine sectors -->
  <g stroke="#1a4f8b" stroke-width="1.2" fill="none" marker-end="url(#arr)">
    <line x1="380" y1="130" x2="125" y2="190"/>
    <line x1="410" y1="130" x2="305" y2="190"/>
    <line x1="450" y1="130" x2="485" y2="190"/>
    <line x1="490" y1="130" x2="665" y2="190"/>
    <line x1="370" y1="130" x2="125" y2="370"/>
    <line x1="430" y1="130" x2="305" y2="370"/>
    <line x1="470" y1="130" x2="485" y2="370"/>
    <line x1="520" y1="130" x2="665" y2="370"/>
    <line x1="450" y1="130" x2="450" y2="455"/>
  </g>

  <!-- Nine sectorial applications (3 columns × 3 rows) -->

  <rect x="40" y="200" width="170" height="60" fill="#fff4e0" stroke="#a05a00" stroke-width="1.2" rx="4"/>
  <text x="125" y="220" text-anchor="middle" font-weight="bold" fill="#a05a00" font-size="12">QM (Ch. 5)</text>
  <text x="125" y="238" text-anchor="middle" font-size="10" fill="#444">Born-squared FORCED;</text>
  <text x="125" y="252" text-anchor="middle" font-size="10" fill="#444">spectra INHERITED</text>

  <rect x="220" y="200" width="170" height="60" fill="#fff4e0" stroke="#a05a00" stroke-width="1.2" rx="4"/>
  <text x="305" y="220" text-anchor="middle" font-weight="bold" fill="#a05a00" font-size="12">QFT (Ch. 6)</text>
  <text x="305" y="238" text-anchor="middle" font-size="10" fill="#444">T17, UV-fin FORCED;</text>
  <text x="305" y="252" text-anchor="middle" font-size="10" fill="#444">couplings INHERITED</text>

  <rect x="400" y="200" width="170" height="60" fill="#fff4e0" stroke="#a05a00" stroke-width="1.2" rx="4"/>
  <text x="485" y="220" text-anchor="middle" font-weight="bold" fill="#a05a00" font-size="12">QC (Ch. 7)</text>
  <text x="485" y="238" text-anchor="middle" font-size="10" fill="#444">UR-1 + 3-class FORCED;</text>
  <text x="485" y="252" text-anchor="middle" font-size="10" fill="#444">𝓜_crit, μ(x) INHERITED</text>

  <rect x="580" y="200" width="170" height="60" fill="#fff4e0" stroke="#a05a00" stroke-width="1.2" rx="4"/>
  <text x="665" y="220" text-anchor="middle" font-weight="bold" fill="#a05a00" font-size="12">NS (Ch. 8)</text>
  <text x="665" y="238" text-anchor="middle" font-size="10" fill="#444">R1 form, Path C FORCED;</text>
  <text x="665" y="252" text-anchor="middle" font-size="10" fill="#444">ν, κ μ_V1 INHERITED</text>

  <rect x="40" y="380" width="170" height="60" fill="#fff4e0" stroke="#a05a00" stroke-width="1.2" rx="4"/>
  <text x="125" y="400" text-anchor="middle" font-weight="bold" fill="#a05a00" font-size="12">MHD/YM (Ch. 9)</text>
  <text x="125" y="418" text-anchor="middle" font-size="10" fill="#444">D_μF^μν, mass-gap FORCED;</text>
  <text x="125" y="432" text-anchor="middle" font-size="10" fill="#444">m_gap, η, g INHERITED</text>

  <rect x="220" y="380" width="170" height="60" fill="#fff4e0" stroke="#a05a00" stroke-width="1.2" rx="4"/>
  <text x="305" y="400" text-anchor="middle" font-weight="bold" fill="#a05a00" font-size="12">Soft-matter (Ch. 10)</text>
  <text x="305" y="418" text-anchor="middle" font-size="10" fill="#444">UDM power-law FORCED;</text>
  <text x="305" y="432" text-anchor="middle" font-size="10" fill="#444">β empirical INHERITED</text>

  <rect x="400" y="380" width="170" height="60" fill="#fff4e0" stroke="#a05a00" stroke-width="1.2" rx="4"/>
  <text x="485" y="400" text-anchor="middle" font-weight="bold" fill="#a05a00" font-size="12">Subst. gravity (Ch. 11)</text>
  <text x="485" y="418" text-anchor="middle" font-size="10" fill="#444">G, a₀, BTFR-4 DERIVED;</text>
  <text x="485" y="432" text-anchor="middle" font-size="10" fill="#444">μ-shape INHERITED</text>

  <rect x="580" y="380" width="170" height="60" fill="#fff4e0" stroke="#a05a00" stroke-width="1.2" rx="4"/>
  <text x="665" y="400" text-anchor="middle" font-weight="bold" fill="#a05a00" font-size="12">Curvature (Ch. 12)</text>
  <text x="665" y="418" text-anchor="middle" font-size="10" fill="#444">scalar-tensor FORCED;</text>
  <text x="665" y="432" text-anchor="middle" font-size="10" fill="#444">Einstein eq. INHERITED</text>

  <rect x="365" y="465" width="170" height="60" fill="#fff4e0" stroke="#a05a00" stroke-width="1.2" rx="4"/>
  <text x="450" y="485" text-anchor="middle" font-weight="bold" fill="#a05a00" font-size="12">BH (Ch. 13)</text>
  <text x="450" y="503" text-anchor="middle" font-size="10" fill="#444">Σ_H, area-law form FORCED;</text>
  <text x="450" y="517" text-anchor="middle" font-size="10" fill="#444">log g INHERITED</text>

  <!-- Footer -->
  <text x="450" y="565" text-anchor="middle" font-size="11" fill="#444" font-style="italic">Same methodology recurs across nine sectors — the program's distinctive signature.</text>
  <text x="450" y="582" text-anchor="middle" font-size="11" fill="#444" font-style="italic">Closed-form-substrate-constants program (Fig. D.1) attacks INHERITED layer from below.</text>
</svg>
